<svg id="svg" version="1.1" xmlns="http://www.w3.org/2000/svg" xmlns:xlink="http://www.w3.org/1999/xlink" width="400" height="400" viewBox="0, 0, 400,400"><g id="svgg"><path id="path0" d="" stroke="none" fill="#000000" fill-rule="evenodd"></path><path id="path1" d="M73.153 140.300 C 73.127 140.465,73.128 140.739,73.156 140.909 C 73.183 141.079,72.755 141.389,72.203 141.599 C 71.261 141.957,70.806 143.826,71.181 145.800 C 71.223 146.020,71.028 145.975,70.749 145.700 C 70.469 145.425,70.102 145.200,69.932 145.200 C 69.763 145.200,69.617 155.627,69.606 168.371 L 69.588 191.543 70.494 191.717 C 71.393 191.890,71.393 191.891,70.448 191.946 C 69.344 192.009,69.437 194.599,70.573 195.430 C 70.988 195.733,71.199 196.805,71.282 199.031 C 71.375 201.529,71.527 202.200,72.000 202.200 C 72.415 202.200,72.662 202.756,72.800 204.000 C 72.938 205.244,73.185 205.800,73.600 205.800 C 74.189 205.800,74.249 205.948,74.350 207.637 C 74.378 208.112,74.747 208.566,75.200 208.684 C 75.643 208.800,76.000 209.230,76.000 209.647 C 76.000 210.061,76.180 210.400,76.400 210.400 C 76.620 210.400,76.755 210.625,76.700 210.900 C 76.644 211.178,76.908 211.348,77.294 211.284 C 77.771 211.204,77.915 211.357,77.755 211.774 C 77.463 212.535,78.563 213.675,79.497 213.580 C 80.848 213.442,81.125 213.602,80.916 214.400 C 80.755 215.014,80.904 215.200,81.553 215.200 C 82.133 215.200,82.400 215.452,82.400 216.000 C 82.400 216.592,82.667 216.800,83.424 216.800 C 83.987 216.800,84.349 216.960,84.228 217.155 C 83.857 217.755,84.914 218.254,86.799 218.367 C 88.944 218.496,89.237 218.639,88.940 219.413 C 88.755 219.895,89.221 220.000,91.545 220.000 C 93.930 220.000,94.338 220.097,94.138 220.617 C 93.952 221.101,94.128 221.192,94.959 221.042 C 95.584 220.928,95.918 221.009,95.776 221.238 C 95.626 221.482,97.073 221.588,99.668 221.522 C 103.527 221.425,104.800 221.079,104.800 220.129 C 104.800 219.948,106.015 219.828,107.500 219.863 C 110.035 219.923,111.433 219.500,111.003 218.804 C 110.899 218.637,109.146 218.485,107.107 218.468 C 104.650 218.448,103.670 218.556,104.200 218.791 C 104.919 219.108,104.926 219.147,104.274 219.172 C 103.874 219.187,103.211 219.020,102.799 218.799 C 102.387 218.579,100.398 218.228,98.378 218.019 C 96.085 217.782,94.449 217.406,94.021 217.019 C 93.645 216.679,92.974 216.400,92.530 216.400 C 92.086 216.400,91.307 216.040,90.800 215.600 C 90.293 215.160,89.706 214.800,89.497 214.800 C 88.688 214.800,82.832 209.631,82.813 208.900 C 82.806 208.625,82.638 208.400,82.440 208.400 C 81.681 208.400,78.000 201.561,78.000 200.152 C 78.000 199.637,77.685 198.448,77.300 197.508 C 76.660 195.946,76.600 193.721,76.600 171.400 L 76.600 147.000 77.600 145.498 C 78.159 144.657,79.173 143.785,79.900 143.517 C 80.708 143.220,81.200 142.767,81.200 142.320 C 81.200 141.924,81.408 141.600,81.662 141.600 C 81.924 141.600,81.811 141.254,81.400 140.800 C 80.661 139.984,73.273 139.536,73.153 140.300 M94.845 163.244 C 94.364 163.692,93.377 164.030,92.444 164.067 C 91.274 164.113,90.809 164.321,90.667 164.864 C 90.561 165.269,90.127 165.600,89.701 165.600 C 88.523 165.600,87.333 170.341,88.352 170.971 C 88.648 171.153,90.196 170.145,92.259 168.427 C 92.512 168.217,93.345 167.783,94.110 167.463 C 94.876 167.143,95.625 166.683,95.775 166.441 C 95.925 166.198,96.600 166.000,97.276 166.000 C 97.952 166.000,99.067 165.654,99.753 165.230 C 100.581 164.719,102.142 164.367,104.400 164.182 C 108.245 163.867,108.302 163.846,107.608 163.010 C 106.997 162.274,106.002 162.206,105.994 162.900 C 105.989 163.287,105.914 163.283,105.660 162.884 C 105.085 161.977,95.876 162.283,94.845 163.244 M140.507 163.200 C 140.130 163.640,139.502 164.000,139.111 164.000 C 138.667 164.000,138.400 164.300,138.400 164.800 C 138.400 165.333,138.133 165.600,137.600 165.600 C 136.046 165.600,136.438 171.848,138.110 173.727 C 140.198 176.074,140.443 175.599,139.928 170.200 C 139.786 168.705,140.896 166.457,142.003 165.999 C 142.661 165.726,143.200 165.262,143.200 164.968 C 143.200 164.531,146.181 164.429,159.522 164.409 C 168.499 164.395,176.247 164.306,176.740 164.212 C 177.916 163.985,178.800 164.346,178.800 165.053 C 178.800 165.367,179.352 165.730,180.034 165.867 C 180.713 166.003,181.364 166.363,181.481 166.668 C 181.884 167.717,183.200 168.136,183.200 167.214 C 183.200 166.716,182.928 166.389,182.500 166.372 C 181.887 166.347,181.896 166.306,182.570 166.042 C 183.824 165.551,181.921 163.862,180.370 164.090 C 179.491 164.219,179.316 164.142,179.629 163.765 C 179.915 163.420,179.882 163.173,179.519 162.947 C 178.625 162.389,177.471 162.362,177.135 162.892 C 176.881 163.292,176.811 163.293,176.806 162.900 C 176.794 161.911,141.360 162.204,140.507 163.200 M194.900 162.672 C 194.625 162.779,194.400 163.312,194.400 163.857 C 194.400 164.476,194.565 164.745,194.840 164.575 C 195.082 164.426,202.742 164.335,211.861 164.374 L 228.442 164.445 230.258 165.410 C 234.240 167.528,234.547 170.899,231.189 175.616 C 230.288 176.880,229.781 177.490,228.181 179.234 C 227.862 179.582,227.600 180.071,227.600 180.319 C 227.600 180.568,227.240 180.965,226.800 181.200 C 226.360 181.435,226.000 181.864,226.000 182.152 C 226.000 182.440,225.640 183.002,225.200 183.400 C 224.760 183.798,224.400 184.360,224.400 184.648 C 224.400 184.936,224.040 185.365,223.600 185.600 C 223.160 185.835,222.800 186.232,222.800 186.481 C 222.800 186.729,222.531 187.218,222.202 187.566 C 220.910 188.935,219.600 190.737,219.600 191.144 C 219.600 191.379,219.240 191.765,218.800 192.000 C 218.360 192.235,218.000 192.685,218.000 193.000 C 218.000 193.315,217.640 193.765,217.200 194.000 C 216.760 194.235,216.400 194.621,216.400 194.856 C 216.400 195.092,215.942 195.850,215.383 196.542 C 214.824 197.234,214.059 198.216,213.683 198.725 C 213.307 199.234,212.685 199.949,212.300 200.314 C 211.915 200.679,211.600 201.137,211.600 201.331 C 211.600 201.526,211.142 202.250,210.583 202.942 C 210.024 203.634,209.259 204.610,208.883 205.110 C 208.507 205.611,207.954 206.294,207.652 206.629 C 206.901 207.465,207.316 207.742,208.881 207.449 C 209.607 207.313,210.380 207.186,210.600 207.167 C 211.258 207.110,212.007 206.335,211.772 205.955 C 211.651 205.760,211.731 205.600,211.948 205.600 C 212.675 205.600,213.600 204.353,213.600 203.371 C 213.600 202.667,213.820 202.400,214.400 202.400 C 214.897 202.400,215.200 202.133,215.200 201.696 C 215.200 201.309,215.560 200.768,216.000 200.493 C 216.440 200.218,216.800 199.640,216.800 199.209 C 216.800 198.640,216.984 198.496,217.469 198.682 C 217.977 198.877,218.077 198.777,217.882 198.269 C 217.741 197.901,217.799 197.600,218.013 197.600 C 218.226 197.600,218.379 197.465,218.353 197.300 C 218.213 196.416,218.484 196.000,219.200 196.000 C 219.717 196.000,220.000 195.733,220.000 195.247 C 220.000 194.830,220.357 194.400,220.800 194.284 C 221.438 194.117,221.600 193.738,221.600 192.410 C 221.600 190.928,221.687 190.774,222.400 191.000 C 223.018 191.196,223.200 191.072,223.200 190.454 C 223.200 190.005,223.551 189.542,224.000 189.400 C 224.440 189.260,224.800 188.888,224.800 188.573 C 224.800 188.258,225.076 188.000,225.413 188.000 C 225.749 188.000,226.143 187.685,226.286 187.300 C 226.430 186.915,226.874 186.365,227.274 186.077 C 227.693 185.776,228.000 185.056,228.000 184.377 C 228.000 183.467,228.181 183.200,228.800 183.200 C 229.297 183.200,229.600 182.933,229.600 182.496 C 229.600 182.109,229.960 181.568,230.400 181.293 C 230.840 181.018,231.200 180.514,231.200 180.173 C 231.200 179.832,231.360 179.651,231.555 179.772 C 231.750 179.893,232.094 179.768,232.321 179.496 C 232.764 178.962,232.800 178.819,232.800 177.600 C 232.800 177.067,233.067 176.800,233.600 176.800 C 234.117 176.800,234.400 176.533,234.400 176.047 C 234.400 175.630,234.757 175.200,235.200 175.084 C 235.653 174.966,236.000 174.538,236.000 174.099 C 236.000 173.673,236.340 173.016,236.757 172.639 C 237.920 171.587,237.956 166.018,236.802 165.716 C 236.357 165.600,236.000 165.171,236.000 164.753 C 236.000 164.267,235.717 164.000,235.200 164.000 C 234.760 164.000,234.037 163.637,233.593 163.193 C 232.822 162.422,196.793 161.937,194.900 162.672 M245.342 162.986 C 244.328 163.696,244.512 165.519,245.639 165.936 C 246.505 166.257,248.400 168.712,248.400 169.515 C 248.400 169.822,248.760 170.531,249.200 171.091 C 249.640 171.650,250.000 172.370,250.000 172.691 C 250.000 173.011,250.360 173.731,250.800 174.291 C 251.240 174.850,251.600 175.633,251.600 176.030 C 251.600 176.428,251.780 176.864,252.000 177.000 C 252.220 177.136,253.120 178.756,254.000 180.600 C 254.880 182.444,255.780 184.064,256.000 184.200 C 256.220 184.336,256.400 184.772,256.400 185.170 C 256.400 185.567,256.760 186.350,257.200 186.909 C 257.640 187.469,258.000 188.189,258.000 188.509 C 258.000 188.830,258.360 189.550,258.800 190.109 C 259.240 190.669,259.600 191.389,259.600 191.709 C 259.600 192.030,259.960 192.750,260.400 193.309 C 260.840 193.869,261.200 194.589,261.200 194.909 C 261.200 195.230,261.560 195.950,262.000 196.509 C 262.440 197.069,262.800 197.785,262.800 198.101 C 262.800 199.014,264.729 201.083,264.926 200.380 C 265.015 200.061,265.384 198.900,265.746 197.800 C 266.693 194.922,266.631 192.800,265.600 192.800 C 264.948 192.800,264.800 192.533,264.800 191.363 C 264.800 190.275,264.611 189.876,264.022 189.722 C 263.463 189.575,263.209 189.107,263.122 188.059 C 263.030 186.956,262.829 186.614,262.300 186.656 C 261.792 186.696,261.586 186.394,261.550 185.556 C 261.463 183.544,261.413 183.400,260.800 183.400 C 260.392 183.400,260.159 182.905,260.073 181.856 C 259.981 180.729,259.737 180.256,259.173 180.109 C 258.596 179.958,258.400 179.554,258.400 178.516 C 258.400 177.462,258.206 177.075,257.600 176.916 C 256.994 176.757,256.800 176.370,256.800 175.316 C 256.800 174.262,256.606 173.875,256.000 173.716 C 255.504 173.586,255.181 173.144,255.150 172.553 C 255.055 170.749,254.998 170.600,254.400 170.600 C 253.992 170.600,253.759 170.105,253.673 169.056 C 253.582 167.946,253.335 167.456,252.795 167.315 C 252.265 167.176,252.007 166.687,251.922 165.659 C 251.806 164.270,251.723 164.194,250.205 164.070 C 248.521 163.933,247.462 163.347,247.828 162.755 C 248.188 162.173,246.245 162.353,245.342 162.986 M288.000 162.807 C 288.000 163.049,287.840 163.149,287.645 163.028 C 287.450 162.908,287.197 163.168,287.082 163.606 C 286.931 164.186,286.673 164.328,286.137 164.127 C 285.515 163.893,285.478 163.946,285.897 164.462 C 286.170 164.798,286.281 165.185,286.145 165.322 C 286.008 165.458,286.357 165.780,286.919 166.036 C 288.499 166.756,289.705 169.838,288.966 171.267 C 288.655 171.868,288.400 172.649,288.400 173.001 C 288.400 173.607,288.110 174.260,286.058 178.279 C 285.586 179.203,285.200 180.214,285.200 180.525 C 285.200 180.837,284.840 181.550,284.400 182.109 C 283.960 182.669,283.600 183.422,283.600 183.784 C 283.600 184.146,283.262 185.107,282.849 185.921 C 282.435 186.734,281.694 188.300,281.200 189.400 C 280.706 190.500,279.965 192.066,279.551 192.879 C 279.138 193.693,278.800 194.614,278.800 194.925 C 278.800 195.237,278.440 195.950,278.000 196.509 C 277.560 197.069,277.200 197.879,277.200 198.309 C 277.200 198.740,276.840 199.550,276.400 200.109 C 275.960 200.669,275.600 201.422,275.600 201.784 C 275.600 202.146,275.240 203.152,274.800 204.021 C 274.360 204.889,273.640 206.311,273.200 207.179 C 272.760 208.048,272.400 209.014,272.400 209.325 C 272.400 209.637,272.040 210.350,271.600 210.909 C 271.160 211.469,270.800 212.279,270.800 212.709 C 270.800 213.140,270.440 213.950,270.000 214.509 C 269.560 215.069,269.200 215.822,269.200 216.184 C 269.200 216.546,268.840 217.552,268.400 218.421 C 267.960 219.289,267.240 220.711,266.800 221.579 C 266.360 222.448,266.000 223.414,266.000 223.725 C 266.000 224.037,265.640 224.750,265.200 225.309 C 264.760 225.869,264.400 226.679,264.400 227.109 C 264.400 227.540,264.040 228.350,263.600 228.909 C 263.160 229.469,262.800 230.222,262.800 230.584 C 262.800 230.946,262.456 231.907,262.035 232.721 C 261.614 233.534,260.793 235.214,260.211 236.452 C 259.049 238.926,257.930 240.147,256.400 240.611 C 255.850 240.778,255.163 241.252,254.873 241.664 C 254.583 242.076,254.160 242.299,253.933 242.158 C 253.662 241.991,253.668 242.180,253.949 242.705 C 254.899 244.479,263.200 244.744,263.200 243.000 C 263.200 242.378,263.427 242.000,263.800 242.000 C 264.130 242.000,264.400 241.827,264.400 241.616 C 264.400 241.404,264.797 240.861,265.282 240.409 C 265.857 239.874,266.241 238.927,266.382 237.694 C 266.529 236.417,266.787 235.800,267.174 235.800 C 267.531 235.800,267.807 235.279,267.905 234.420 C 267.992 233.661,268.409 232.739,268.831 232.373 C 269.254 232.006,269.600 231.272,269.600 230.741 C 269.600 230.211,269.960 229.517,270.400 229.200 C 270.886 228.850,271.200 228.165,271.200 227.456 C 271.200 226.814,271.504 226.066,271.876 225.794 C 272.278 225.500,272.643 224.509,272.776 223.350 C 272.933 221.983,273.179 221.400,273.600 221.400 C 274.198 221.400,274.255 221.251,274.350 219.447 C 274.381 218.856,274.704 218.414,275.200 218.284 C 275.838 218.117,276.000 217.738,276.000 216.414 C 276.000 215.500,276.160 214.851,276.355 214.972 C 276.865 215.288,277.411 214.389,277.552 213.000 C 277.619 212.340,277.943 211.499,278.271 211.131 C 278.599 210.763,278.964 209.743,279.082 208.865 C 279.232 207.750,279.523 207.209,280.048 207.072 C 280.602 206.927,280.800 206.509,280.800 205.484 C 280.800 204.430,280.994 204.043,281.600 203.884 C 282.213 203.724,282.400 203.338,282.400 202.237 C 282.400 201.333,282.697 200.503,283.200 200.000 C 283.640 199.560,284.000 198.809,284.000 198.331 C 284.000 197.854,284.285 197.148,284.634 196.763 C 284.983 196.377,285.364 195.343,285.482 194.465 C 285.632 193.350,285.923 192.809,286.448 192.672 C 287.002 192.527,287.200 192.109,287.200 191.084 C 287.200 190.030,287.394 189.643,288.000 189.484 C 288.600 189.327,288.800 188.938,288.800 187.926 C 288.800 187.073,289.094 186.326,289.600 185.893 C 290.118 185.449,290.400 184.713,290.400 183.804 C 290.400 182.894,290.576 182.435,290.900 182.500 C 291.175 182.555,291.355 182.375,291.300 182.100 C 291.245 181.825,291.380 181.600,291.600 181.600 C 291.820 181.600,291.979 181.465,291.953 181.300 C 291.715 179.794,292.087 178.471,292.800 178.284 C 293.406 178.125,293.600 177.738,293.600 176.684 C 293.600 175.630,293.794 175.243,294.400 175.084 C 295.036 174.918,295.200 174.538,295.200 173.237 C 295.200 172.080,295.369 171.600,295.775 171.600 C 296.146 171.600,296.441 170.995,296.605 169.900 C 296.864 168.166,296.327 166.000,295.638 166.000 C 295.428 166.000,295.198 165.595,295.128 165.100 C 295.023 164.363,294.674 164.156,293.200 163.960 C 292.210 163.828,291.557 163.693,291.749 163.660 C 291.941 163.627,291.903 163.366,291.666 163.079 C 291.125 162.427,288.000 162.196,288.000 162.807 M191.680 164.480 C 190.875 165.285,191.134 165.600,192.600 165.600 C 193.787 165.600,193.999 165.463,193.994 164.700 C 193.989 163.972,193.914 163.915,193.600 164.400 C 193.342 164.800,193.210 164.833,193.206 164.500 C 193.198 163.864,192.307 163.853,191.680 164.480 M324.338 171.105 C 324.042 171.516,323.506 171.962,323.148 172.096 C 322.700 172.262,322.488 172.839,322.473 173.937 L 322.451 175.536 327.441 175.668 C 333.071 175.817,333.166 175.869,333.222 178.800 C 333.264 180.997,333.581 181.763,334.512 181.920 C 335.169 182.031,335.216 181.652,335.112 177.120 L 335.000 172.200 333.121 172.079 C 331.608 171.981,331.288 171.836,331.481 171.333 C 331.672 170.835,331.535 170.767,330.810 170.997 C 330.308 171.156,329.997 171.128,330.118 170.933 C 330.605 170.145,324.906 170.314,324.338 171.105 M330.188 171.945 C 330.104 172.030,329.712 171.958,329.317 171.786 C 328.923 171.614,328.452 171.506,328.270 171.546 C 328.089 171.587,328.044 171.452,328.171 171.248 C 328.308 171.025,328.791 171.060,329.371 171.334 C 329.905 171.585,330.273 171.861,330.188 171.945 M104.800 175.551 C 104.800 176.292,106.012 176.948,106.493 176.467 C 106.959 176.001,109.225 178.046,109.747 179.406 C 109.872 179.733,110.321 180.000,110.743 180.000 C 111.229 180.000,111.491 180.257,111.456 180.700 C 111.421 181.139,111.661 181.379,112.100 181.344 C 112.592 181.305,112.800 181.581,112.800 182.271 C 112.800 183.072,112.948 183.207,113.600 183.000 C 114.340 182.765,114.400 182.928,114.400 185.173 C 114.400 186.592,114.573 187.600,114.818 187.600 C 115.047 187.600,115.182 187.915,115.118 188.300 C 115.052 188.691,115.221 188.956,115.500 188.900 C 115.870 188.826,116.000 189.733,116.000 192.400 C 116.000 195.733,115.941 196.000,115.200 196.000 C 114.542 196.000,114.400 196.267,114.400 197.504 C 114.400 198.574,114.170 199.151,113.600 199.507 C 113.090 199.826,112.800 200.440,112.800 201.203 C 112.800 202.032,112.604 202.400,112.163 202.400 C 111.812 202.400,111.431 202.760,111.316 203.200 C 111.201 203.640,110.841 204.000,110.516 204.000 C 110.191 204.000,109.833 204.354,109.719 204.787 C 109.606 205.219,109.173 205.682,108.757 205.814 C 107.805 206.116,107.763 207.184,108.700 207.247 C 109.953 207.332,110.594 207.134,110.920 206.562 C 111.096 206.253,111.584 206.000,112.006 206.000 C 112.427 206.000,112.965 205.640,113.200 205.200 C 113.435 204.760,113.794 204.400,113.996 204.400 C 114.548 204.400,116.303 202.535,116.584 201.649 C 116.720 201.222,117.094 200.654,117.415 200.387 C 117.737 200.120,118.000 199.516,118.000 199.045 C 118.000 198.574,118.360 197.516,118.800 196.696 C 119.924 194.598,119.919 188.943,118.791 186.456 C 118.356 185.497,118.000 184.453,118.000 184.135 C 118.000 183.310,113.677 178.000,113.006 178.000 C 112.697 178.000,112.179 177.620,111.854 177.155 C 111.377 176.475,110.944 176.340,109.631 176.466 C 108.277 176.595,108.000 176.501,108.000 175.911 C 108.000 175.348,107.666 175.200,106.400 175.200 C 105.520 175.200,104.800 175.358,104.800 175.551 M313.308 175.976 C 312.801 176.521,311.932 176.789,310.393 176.876 L 308.200 177.000 308.079 178.881 C 307.963 180.679,307.998 180.750,308.879 180.488 C 311.027 179.847,317.684 180.340,318.608 181.208 C 319.719 182.251,322.304 182.735,322.579 181.951 C 323.049 180.613,322.198 178.603,321.108 178.476 C 320.317 178.383,320.107 178.186,320.291 177.706 C 320.476 177.225,320.369 177.126,319.869 177.318 C 319.501 177.459,319.200 177.401,319.200 177.187 C 319.200 176.974,318.520 176.800,317.689 176.800 C 316.673 176.800,315.953 176.538,315.493 176.000 C 314.637 175.000,314.221 174.996,313.308 175.976 M163.300 177.810 C 162.805 178.339,162.400 179.027,162.400 179.339 C 162.400 179.651,162.040 180.001,161.600 180.116 C 160.645 180.366,160.540 181.415,161.436 181.759 C 162.271 182.079,162.819 181.716,162.552 181.019 C 162.414 180.660,162.668 180.417,163.269 180.332 C 163.976 180.232,164.170 179.984,164.075 179.300 C 163.994 178.721,164.158 178.400,164.532 178.400 C 165.017 178.400,165.600 177.618,165.600 176.967 C 165.600 176.432,164.063 176.995,163.300 177.810 M340.629 179.029 C 340.283 179.374,340.000 179.909,340.000 180.216 C 340.000 180.548,339.757 180.682,339.400 180.545 C 339.070 180.418,338.800 180.492,338.800 180.708 C 338.800 180.925,339.070 181.326,339.400 181.600 C 339.730 181.874,340.000 181.966,340.000 181.805 C 340.000 181.643,340.315 181.900,340.700 182.376 C 341.085 182.851,342.207 183.422,343.194 183.643 C 344.181 183.865,345.261 184.282,345.594 184.569 C 345.927 184.857,346.909 185.200,347.776 185.333 C 350.100 185.689,350.703 186.538,350.881 189.700 C 351.014 192.074,350.947 192.400,350.324 192.400 C 349.577 192.400,349.139 193.547,349.286 195.117 C 349.440 196.745,350.975 196.097,351.122 194.341 C 351.208 193.312,351.465 192.824,351.996 192.685 C 352.544 192.542,352.739 192.144,352.713 191.225 C 352.688 190.357,352.947 189.772,353.539 189.358 C 354.280 188.839,354.400 188.367,354.400 185.977 C 354.400 182.424,353.724 181.600,350.813 181.600 C 349.119 181.600,348.863 181.501,349.082 180.931 C 349.277 180.423,349.177 180.323,348.669 180.518 C 348.301 180.659,348.000 180.601,348.000 180.387 C 348.000 180.174,347.320 180.000,346.489 180.000 C 345.473 180.000,344.753 179.738,344.293 179.200 C 343.468 178.237,341.512 178.145,340.629 179.029 M159.467 181.867 C 159.320 182.013,159.200 182.373,159.200 182.667 C 159.200 182.960,158.840 183.560,158.400 184.000 C 157.960 184.440,157.600 185.160,157.600 185.600 C 157.600 186.052,157.333 186.400,156.987 186.400 C 156.651 186.400,156.254 186.715,156.107 187.100 C 155.960 187.485,155.517 188.070,155.123 188.400 C 154.518 188.907,154.177 189.810,154.030 191.300 C 154.013 191.465,153.809 191.600,153.576 191.600 C 153.343 191.600,153.281 191.392,153.438 191.138 C 153.615 190.852,153.548 190.785,153.262 190.962 C 153.008 191.119,152.800 191.597,152.800 192.024 C 152.800 192.533,152.525 192.800,152.000 192.800 C 151.483 192.800,151.200 193.067,151.200 193.553 C 151.200 193.970,150.843 194.400,150.400 194.516 C 149.820 194.668,149.600 195.062,149.600 195.950 C 149.600 197.430,151.302 197.171,151.528 195.656 C 151.598 195.185,151.918 194.800,152.238 194.800 C 152.558 194.800,152.991 194.350,153.200 193.800 C 153.409 193.250,153.765 192.800,153.990 192.800 C 154.216 192.800,154.400 192.342,154.400 191.782 C 154.400 191.035,154.586 190.796,155.100 190.882 C 155.591 190.965,155.915 190.611,156.183 189.700 C 156.393 188.985,156.786 188.400,157.055 188.400 C 157.324 188.400,157.602 187.995,157.672 187.500 C 157.753 186.929,158.038 186.639,158.452 186.706 C 159.251 186.837,159.784 185.165,159.085 184.720 C 158.609 184.418,158.801 184.317,160.000 184.239 C 160.804 184.187,161.090 181.600,160.292 181.600 C 159.985 181.600,159.613 181.720,159.467 181.867 M335.252 183.737 C 335.007 184.032,334.940 184.407,335.103 184.570 C 335.267 184.733,335.220 184.830,335.000 184.786 C 334.003 184.585,333.600 184.873,333.600 185.786 C 333.600 187.011,332.565 187.600,330.413 187.600 C 329.081 187.600,328.711 187.768,328.434 188.500 C 327.562 190.807,331.551 190.730,333.600 188.400 C 334.575 187.292,335.326 186.807,336.073 186.804 C 336.793 186.801,337.230 186.536,337.400 186.000 C 337.540 185.560,337.822 185.200,338.027 185.200 C 338.232 185.200,338.400 184.750,338.400 184.200 C 338.400 183.054,336.100 182.715,335.252 183.737 M313.256 184.695 C 311.944 184.812,311.462 185.042,311.309 185.625 C 311.198 186.051,310.841 186.400,310.516 186.400 C 310.191 186.400,309.831 186.760,309.716 187.200 C 309.600 187.643,309.170 188.000,308.753 188.000 C 308.339 188.000,308.000 188.174,308.000 188.387 C 308.000 188.601,307.730 188.671,307.400 188.545 C 306.671 188.265,306.613 188.851,307.300 189.544 C 307.701 189.948,307.648 189.989,307.031 189.754 C 306.391 189.511,306.311 189.591,306.554 190.231 C 306.789 190.848,306.748 190.901,306.344 190.500 C 305.672 189.833,305.062 189.863,305.326 190.551 C 305.607 191.283,304.855 191.996,304.105 191.708 C 303.646 191.532,303.571 191.678,303.780 192.337 C 303.985 192.984,303.911 193.141,303.478 192.974 C 302.818 192.721,301.600 193.786,301.600 194.616 C 301.600 194.974,301.360 195.083,300.931 194.918 C 300.423 194.723,300.323 194.823,300.518 195.331 C 300.659 195.699,300.601 196.000,300.387 196.000 C 300.174 196.000,300.000 196.360,300.000 196.800 C 300.000 197.333,299.733 197.600,299.200 197.600 C 298.667 197.600,298.400 197.867,298.400 198.400 C 298.400 199.052,298.133 199.200,296.963 199.200 C 295.885 199.200,295.475 199.391,295.326 199.963 C 295.216 200.383,294.783 200.816,294.363 200.926 C 293.863 201.056,293.600 201.478,293.600 202.150 C 293.600 202.897,293.437 203.112,293.000 202.945 C 292.163 202.624,292.246 203.471,293.100 203.968 C 293.721 204.330,293.726 204.377,293.143 204.388 C 291.777 204.413,291.409 208.800,292.773 208.800 C 293.222 208.800,293.665 208.425,293.830 207.907 C 294.247 206.592,297.191 203.052,298.781 201.954 C 300.480 200.780,302.000 199.401,302.000 199.034 C 302.000 198.687,308.926 191.836,311.028 190.104 C 311.892 189.391,313.455 188.152,314.500 187.350 C 315.545 186.549,316.400 185.737,316.400 185.546 C 316.400 185.356,316.670 185.200,317.000 185.200 C 317.330 185.200,317.600 185.020,317.600 184.800 C 317.600 184.407,316.727 184.386,313.256 184.695 M330.707 196.800 C 330.304 197.446,329.774 197.600,327.953 197.600 C 326.436 197.600,325.535 197.797,325.200 198.200 C 324.926 198.530,324.439 198.800,324.118 198.800 C 323.796 198.800,323.608 199.025,323.700 199.300 C 323.792 199.575,324.077 199.782,324.333 199.760 C 324.590 199.738,326.960 199.693,329.600 199.660 C 334.579 199.598,335.321 199.297,333.200 198.200 C 332.481 197.828,332.000 197.263,332.000 196.790 C 332.000 195.772,331.346 195.777,330.707 196.800 M347.742 197.007 C 347.614 197.340,347.597 198.071,347.704 198.631 C 347.847 199.380,347.659 199.805,346.991 200.242 C 346.388 200.638,346.153 201.098,346.289 201.618 C 346.556 202.639,348.000 202.663,348.000 201.647 C 348.000 201.232,348.336 200.805,348.747 200.698 C 349.906 200.395,349.937 196.400,348.780 196.400 C 348.337 196.400,347.870 196.673,347.742 197.007 M148.000 198.400 C 148.000 198.933,147.733 199.200,147.200 199.200 C 146.608 199.200,146.400 199.467,146.400 200.224 C 146.400 200.787,146.240 201.149,146.045 201.028 C 145.327 200.584,144.843 201.771,145.420 202.560 C 145.951 203.286,145.992 203.273,146.377 202.259 C 146.599 201.677,147.060 201.200,147.403 201.200 C 147.745 201.200,148.143 200.885,148.288 200.500 C 148.432 200.115,148.816 199.601,149.140 199.358 C 149.849 198.826,149.481 197.600,148.613 197.600 C 148.267 197.600,148.000 197.948,148.000 198.400 M334.800 200.704 C 334.800 200.871,335.160 201.232,335.600 201.507 C 336.065 201.797,336.400 202.440,336.400 203.040 C 336.400 203.609,336.760 204.531,337.200 205.091 C 337.667 205.685,338.000 206.714,338.000 207.565 C 338.000 208.527,338.272 209.255,338.800 209.707 C 339.240 210.084,339.600 210.671,339.600 211.012 C 339.600 211.353,339.977 212.142,340.437 212.765 C 340.903 213.395,341.392 214.853,341.537 216.047 C 341.865 218.731,343.793 219.769,346.270 218.594 C 347.562 217.981,348.204 216.883,347.000 217.345 C 346.670 217.471,346.400 217.401,346.400 217.187 C 346.400 216.974,346.040 216.800,345.600 216.800 C 345.052 216.800,344.784 216.516,344.748 215.900 C 344.720 215.405,344.666 214.488,344.629 213.861 C 344.592 213.235,344.255 212.551,343.881 212.341 C 343.506 212.132,343.200 211.609,343.200 211.180 C 343.200 210.751,343.026 210.400,342.813 210.400 C 342.599 210.400,342.541 210.099,342.682 209.731 C 342.877 209.223,342.777 209.123,342.269 209.318 C 341.751 209.517,341.600 209.344,341.600 208.550 C 341.600 207.862,341.337 207.456,340.800 207.316 C 340.124 207.139,340.000 206.770,340.000 204.943 C 340.000 203.072,339.879 202.733,339.100 202.427 C 338.605 202.232,337.887 201.697,337.504 201.237 C 336.848 200.449,334.800 200.045,334.800 200.704 M307.292 203.100 C 306.873 203.705,306.417 204.515,306.278 204.900 C 306.139 205.285,305.743 205.600,305.399 205.600 C 304.527 205.600,304.684 210.626,305.584 211.530 C 306.139 212.088,306.210 211.914,306.299 209.775 C 306.457 205.988,306.734 204.911,307.610 204.682 C 308.182 204.532,308.400 204.133,308.400 203.237 C 308.400 201.719,308.261 201.702,307.292 203.100 M143.829 203.029 C 143.483 203.374,143.200 204.094,143.200 204.629 C 143.200 205.333,142.980 205.600,142.400 205.600 C 141.883 205.600,141.600 205.867,141.600 206.353 C 141.600 206.770,141.243 207.200,140.800 207.316 C 140.220 207.468,140.000 207.862,140.000 208.750 C 140.000 209.728,140.134 209.923,140.666 209.719 C 141.149 209.534,141.242 209.609,141.004 209.994 C 140.794 210.333,140.832 210.428,141.107 210.257 C 141.344 210.111,141.653 209.471,141.792 208.836 C 141.939 208.166,142.372 207.596,142.823 207.478 C 143.275 207.360,143.600 206.930,143.600 206.450 C 143.600 205.881,143.786 205.697,144.200 205.855 C 144.547 205.989,144.811 205.857,144.826 205.543 C 144.840 205.244,144.909 204.415,144.979 203.700 C 145.120 202.268,144.785 202.072,143.829 203.029 M234.000 212.325 C 234.000 215.654,233.938 215.909,232.893 216.911 L 231.785 217.972 212.293 218.015 C 192.337 218.059,191.857 218.097,193.280 219.520 C 193.900 220.140,236.586 220.224,236.203 219.605 C 236.057 219.369,236.238 219.316,236.649 219.474 C 237.184 219.679,237.279 219.584,237.074 219.049 C 236.916 218.638,236.969 218.457,237.205 218.603 C 238.175 219.203,237.664 210.600,236.674 209.670 C 234.638 207.757,234.000 208.391,234.000 212.325 M138.422 214.669 C 138.460 217.051,138.667 219.219,138.883 219.487 C 139.489 220.237,182.115 220.226,182.738 219.475 C 183.116 219.019,183.451 217.903,183.570 216.700 C 183.587 216.535,183.855 216.400,184.167 216.400 C 185.036 216.400,184.838 211.910,183.964 211.783 C 183.333 211.690,183.307 211.850,183.059 217.268 C 183.036 217.784,182.865 217.849,182.314 217.554 C 181.842 217.302,181.600 217.312,181.600 217.586 C 181.600 217.866,175.375 218.000,162.420 218.000 L 143.241 218.000 142.031 216.705 C 141.198 215.814,140.747 214.848,140.585 213.605 C 140.455 212.612,140.314 211.530,140.270 211.200 C 140.227 210.870,139.778 210.541,139.273 210.469 C 138.360 210.339,138.355 210.364,138.422 214.669 M288.800 212.367 C 288.800 212.592,288.499 212.659,288.131 212.518 C 287.631 212.326,287.524 212.425,287.709 212.906 C 287.893 213.387,287.682 213.583,286.878 213.676 C 286.044 213.772,285.772 214.044,285.676 214.878 C 285.583 215.682,285.387 215.893,284.906 215.709 C 284.425 215.524,284.326 215.631,284.518 216.131 C 284.716 216.646,284.546 216.800,283.775 216.800 C 283.185 216.800,282.672 217.087,282.523 217.500 C 282.385 217.885,281.930 218.532,281.513 218.937 C 280.897 219.536,280.777 220.138,280.877 222.137 L 281.000 224.600 282.287 224.625 C 283.639 224.652,284.400 223.494,284.400 221.410 C 284.400 220.540,285.899 218.800,286.649 218.800 C 286.868 218.800,287.576 218.084,288.223 217.209 C 288.870 216.335,289.619 215.615,289.886 215.609 C 290.153 215.604,290.557 215.255,290.783 214.833 C 291.009 214.410,291.745 213.944,292.419 213.796 C 293.269 213.609,293.606 213.323,293.518 212.863 C 293.374 212.103,288.800 211.622,288.800 212.367 M305.067 215.467 C 304.920 215.613,304.800 216.333,304.800 217.067 C 304.800 218.365,304.580 218.540,302.981 218.521 C 302.750 218.518,302.536 218.850,302.506 219.258 C 302.470 219.728,302.715 220.000,303.175 220.000 C 303.574 220.000,304.463 220.113,305.150 220.250 L 306.400 220.500 306.400 217.850 C 306.400 215.321,305.974 214.559,305.067 215.467 M296.684 217.600 C 296.518 218.236,296.672 218.400,297.437 218.400 C 298.495 218.400,298.659 218.019,297.920 217.280 C 297.240 216.600,296.924 216.682,296.684 217.600 M349.737 219.020 C 349.602 219.372,349.868 220.034,350.349 220.546 C 350.817 221.044,351.200 221.845,351.200 222.326 C 351.200 223.380,352.309 223.510,352.686 222.500 C 352.830 222.115,353.274 221.565,353.674 221.277 C 354.507 220.678,354.620 219.580,353.920 218.880 C 353.196 218.156,350.028 218.262,349.737 219.020 M288.876 223.900 C 288.950 224.285,289.366 224.600,289.800 224.600 C 290.234 224.600,290.650 224.285,290.724 223.900 C 290.825 223.376,290.593 223.200,289.800 223.200 C 289.007 223.200,288.775 223.376,288.876 223.900 M341.600 225.629 C 341.600 226.202,341.815 226.417,342.295 226.325 C 343.338 226.124,343.454 224.800,342.429 224.800 C 341.857 224.800,341.600 225.057,341.600 225.629 " stroke="none" fill="#dcdcdc" fill-rule="evenodd"></path><path id="path2" d="M71.981 141.020 L 71.023 142.040 71.978 141.686 C 72.504 141.492,72.978 141.033,73.031 140.666 C 73.159 139.800,73.113 139.815,71.981 141.020 M81.400 140.800 C 81.811 141.254,81.924 141.600,81.662 141.600 C 81.408 141.600,81.200 141.924,81.200 142.320 C 81.200 142.767,80.708 143.220,79.900 143.517 C 79.173 143.785,78.159 144.657,77.600 145.498 L 76.600 147.000 76.600 171.400 C 76.600 193.721,76.660 195.946,77.300 197.508 C 77.685 198.448,78.000 199.637,78.000 200.152 C 78.000 201.561,81.681 208.400,82.440 208.400 C 82.638 208.400,82.806 208.625,82.813 208.900 C 82.832 209.631,88.688 214.800,89.497 214.800 C 89.706 214.800,90.293 215.160,90.800 215.600 C 91.307 216.040,92.086 216.400,92.530 216.400 C 92.974 216.400,93.645 216.679,94.021 217.019 C 94.449 217.406,96.085 217.782,98.378 218.019 C 100.398 218.228,102.387 218.579,102.799 218.799 C 103.211 219.020,103.874 219.187,104.274 219.172 C 104.925 219.147,104.918 219.108,104.200 218.797 C 103.687 218.575,105.119 218.440,108.200 218.419 C 113.793 218.382,114.364 218.346,114.330 218.033 C 114.224 217.043,114.553 216.800,116.000 216.800 C 117.333 216.800,117.600 216.667,117.600 216.000 C 117.600 215.348,117.867 215.200,119.037 215.200 C 120.138 215.200,120.524 215.013,120.684 214.400 C 120.800 213.957,121.230 213.600,121.647 213.600 C 122.133 213.600,122.400 213.317,122.400 212.800 C 122.400 212.267,122.667 212.000,123.200 212.000 C 123.733 212.000,124.000 211.733,124.000 211.200 C 124.000 210.667,124.267 210.400,124.800 210.400 C 125.317 210.400,125.600 210.133,125.600 209.647 C 125.600 209.230,125.957 208.800,126.400 208.684 C 127.013 208.524,127.200 208.138,127.200 207.037 C 127.200 205.867,127.348 205.600,128.000 205.600 C 128.658 205.600,128.800 205.333,128.800 204.096 C 128.800 203.026,129.030 202.449,129.600 202.093 C 130.365 201.615,130.400 201.160,130.400 191.597 C 130.400 181.867,130.379 181.600,129.600 181.600 C 128.895 181.600,128.800 181.333,128.800 179.363 C 128.800 177.462,128.680 177.094,128.000 176.916 C 127.560 176.801,127.200 176.396,127.200 176.015 C 127.200 175.635,126.840 174.998,126.400 174.600 C 125.960 174.202,125.600 173.527,125.600 173.101 C 125.600 172.662,125.253 172.234,124.800 172.116 C 124.357 172.000,124.000 171.570,124.000 171.153 C 124.000 170.682,123.718 170.400,123.247 170.400 C 122.830 170.400,122.400 170.043,122.284 169.600 C 122.169 169.160,121.788 168.800,121.437 168.800 C 121.087 168.800,120.440 168.440,120.000 168.000 C 119.560 167.560,118.861 167.200,118.447 167.200 C 118.030 167.200,117.600 166.843,117.484 166.400 C 117.306 165.720,116.938 165.600,115.037 165.600 C 113.017 165.600,112.800 165.517,112.800 164.743 C 112.800 163.475,102.035 163.818,99.872 165.156 C 99.120 165.620,97.952 166.000,97.276 166.000 C 96.600 166.000,95.925 166.198,95.775 166.441 C 95.625 166.683,94.876 167.143,94.110 167.463 C 93.345 167.783,92.512 168.217,92.259 168.427 C 90.196 170.145,88.648 171.153,88.352 170.971 C 87.318 170.331,88.509 165.699,89.753 165.520 C 90.214 165.454,90.652 165.085,90.725 164.700 C 90.891 163.830,90.262 163.796,89.429 164.629 C 88.857 165.200,88.800 164.342,88.800 155.191 C 88.800 145.462,88.773 145.118,88.000 144.916 C 87.557 144.800,87.200 144.370,87.200 143.953 C 87.200 143.501,86.919 143.200,86.496 143.200 C 86.109 143.200,85.568 142.840,85.293 142.400 C 84.989 141.913,84.360 141.600,83.685 141.600 C 83.035 141.600,82.338 141.269,82.000 140.800 C 81.683 140.360,81.255 140.000,81.050 140.000 C 80.844 140.000,81.002 140.360,81.400 140.800 M70.042 144.321 C 69.753 144.861,69.830 145.151,70.347 145.474 C 70.936 145.842,71.050 145.736,71.125 144.753 C 71.223 143.460,70.630 143.223,70.042 144.321 M94.210 163.048 C 93.229 164.028,93.814 164.204,94.849 163.240 C 95.345 162.778,95.550 162.400,95.304 162.400 C 95.058 162.400,94.566 162.691,94.210 163.048 M244.116 163.200 C 243.909 163.991,242.912 164.213,240.471 164.012 C 239.829 163.959,239.475 164.192,239.324 164.768 C 239.190 165.283,238.782 165.600,238.253 165.599 C 237.449 165.599,237.405 165.775,237.482 168.693 C 237.553 171.365,237.448 171.910,236.712 172.693 C 236.244 173.192,236.072 173.600,236.330 173.600 C 236.589 173.600,236.800 173.420,236.800 173.200 C 236.800 172.980,236.980 172.800,237.200 172.800 C 237.420 172.800,237.600 173.267,237.600 173.837 C 237.600 174.538,237.859 174.943,238.400 175.084 C 239.006 175.243,239.200 175.630,239.200 176.684 C 239.200 177.738,239.394 178.125,240.000 178.284 C 240.606 178.443,240.800 178.830,240.800 179.884 C 240.800 180.938,240.994 181.325,241.600 181.484 C 242.162 181.631,242.400 182.030,242.400 182.824 C 242.400 183.474,242.717 184.177,243.146 184.477 C 243.557 184.765,244.021 185.585,244.178 186.300 C 244.337 187.023,244.716 187.600,245.032 187.600 C 245.355 187.600,245.600 187.990,245.600 188.504 C 245.600 189.001,245.960 189.632,246.400 189.907 C 246.910 190.226,247.200 190.840,247.200 191.603 C 247.200 192.533,247.378 192.800,248.000 192.800 C 248.667 192.800,248.800 193.067,248.800 194.400 C 248.800 195.733,248.933 196.000,249.600 196.000 C 250.267 196.000,250.400 196.267,250.400 197.600 C 250.400 198.933,250.533 199.200,251.200 199.200 C 251.867 199.200,252.000 199.467,252.000 200.800 C 252.000 202.133,252.133 202.400,252.800 202.400 C 253.452 202.400,253.600 202.667,253.600 203.837 C 253.600 204.938,253.787 205.324,254.400 205.484 C 255.006 205.643,255.200 206.030,255.200 207.084 C 255.200 208.138,255.394 208.525,256.000 208.684 C 256.606 208.843,256.800 209.230,256.800 210.284 C 256.800 211.338,256.994 211.725,257.600 211.884 C 258.040 211.999,258.400 212.411,258.400 212.800 C 258.400 213.189,258.040 213.601,257.600 213.716 C 257.001 213.873,256.800 214.262,256.800 215.266 C 256.800 216.174,256.542 216.769,256.000 217.107 C 255.374 217.498,255.200 218.040,255.200 219.603 C 255.200 221.333,255.093 221.600,254.400 221.600 C 253.733 221.600,253.600 221.867,253.600 223.200 C 253.600 224.533,253.467 224.800,252.800 224.800 C 252.137 224.800,252.000 225.067,252.000 226.353 C 252.000 227.570,251.827 227.952,251.200 228.116 C 250.601 228.273,250.400 228.662,250.400 229.666 C 250.400 230.574,250.142 231.169,249.600 231.507 C 248.896 231.947,248.800 232.440,248.800 235.603 C 248.800 238.933,248.859 239.200,249.600 239.200 C 250.133 239.200,250.400 239.467,250.400 240.000 C 250.400 240.493,250.669 240.803,251.100 240.807 C 251.485 240.811,252.243 241.280,252.784 241.850 L 253.767 242.886 254.625 241.889 C 255.097 241.340,255.915 240.760,256.442 240.599 C 257.930 240.147,259.058 238.906,260.211 236.452 C 260.793 235.214,261.614 233.534,262.035 232.721 C 262.456 231.907,262.800 230.946,262.800 230.584 C 262.800 230.222,263.160 229.469,263.600 228.909 C 264.040 228.350,264.400 227.540,264.400 227.109 C 264.400 226.679,264.760 225.869,265.200 225.309 C 265.640 224.750,266.000 224.037,266.000 223.725 C 266.000 223.414,266.360 222.448,266.800 221.579 C 267.240 220.711,267.960 219.289,268.400 218.421 C 268.840 217.552,269.200 216.546,269.200 216.184 C 269.200 215.822,269.560 215.069,270.000 214.509 C 270.440 213.950,270.800 213.140,270.800 212.709 C 270.800 212.279,271.160 211.469,271.600 210.909 C 272.040 210.350,272.400 209.637,272.400 209.325 C 272.400 209.014,272.760 208.048,273.200 207.179 C 273.640 206.311,274.360 204.889,274.800 204.021 C 275.240 203.152,275.600 202.146,275.600 201.784 C 275.600 201.422,275.960 200.669,276.400 200.109 C 276.840 199.550,277.200 198.740,277.200 198.309 C 277.200 197.879,277.560 197.069,278.000 196.509 C 278.440 195.950,278.800 195.237,278.800 194.925 C 278.800 194.614,279.138 193.693,279.551 192.879 C 279.965 192.066,280.706 190.500,281.200 189.400 C 281.694 188.300,282.435 186.734,282.849 185.921 C 283.262 185.107,283.600 184.146,283.600 183.784 C 283.600 183.422,283.960 182.669,284.400 182.109 C 284.840 181.550,285.200 180.837,285.200 180.525 C 285.200 180.214,285.586 179.203,286.058 178.279 C 288.110 174.260,288.400 173.607,288.400 173.001 C 288.400 172.649,288.655 171.868,288.966 171.267 C 289.705 169.838,288.499 166.756,286.919 166.036 C 286.357 165.780,286.008 165.458,286.145 165.322 C 286.815 164.652,285.339 164.000,283.151 164.000 C 281.067 164.000,280.800 164.091,280.800 164.800 C 280.800 165.333,280.533 165.600,280.000 165.600 C 279.467 165.600,279.200 165.867,279.200 166.400 C 279.200 166.933,278.933 167.200,278.400 167.200 C 277.733 167.200,277.600 167.467,277.600 168.800 C 277.600 170.133,277.467 170.400,276.800 170.400 C 276.137 170.400,276.000 170.667,276.000 171.953 C 276.000 173.170,275.827 173.552,275.200 173.716 C 274.587 173.876,274.400 174.262,274.400 175.363 C 274.400 176.267,274.103 177.097,273.600 177.600 C 273.067 178.133,272.800 178.933,272.800 180.000 C 272.800 181.333,272.667 181.600,272.000 181.600 C 271.337 181.600,271.200 181.867,271.200 183.153 C 271.200 184.370,271.027 184.752,270.400 184.916 C 269.794 185.075,269.600 185.462,269.600 186.516 C 269.600 187.570,269.406 187.957,268.800 188.116 C 268.187 188.276,268.000 188.662,268.000 189.763 C 268.000 190.667,267.703 191.497,267.200 192.000 C 266.683 192.517,266.401 193.331,266.402 194.300 C 266.403 195.125,266.108 196.700,265.746 197.800 C 265.384 198.900,265.015 200.061,264.926 200.380 C 264.729 201.083,262.800 199.014,262.800 198.101 C 262.800 197.785,262.440 197.069,262.000 196.509 C 261.560 195.950,261.200 195.230,261.200 194.909 C 261.200 194.589,260.840 193.869,260.400 193.309 C 259.960 192.750,259.600 192.030,259.600 191.709 C 259.600 191.389,259.240 190.669,258.800 190.109 C 258.360 189.550,258.000 188.830,258.000 188.509 C 258.000 188.189,257.640 187.469,257.200 186.909 C 256.760 186.350,256.400 185.567,256.400 185.170 C 256.400 184.772,256.220 184.336,256.000 184.200 C 255.780 184.064,254.880 182.444,254.000 180.600 C 253.120 178.756,252.220 177.136,252.000 177.000 C 251.780 176.864,251.600 176.428,251.600 176.030 C 251.600 175.633,251.240 174.850,250.800 174.291 C 250.360 173.731,250.000 173.011,250.000 172.691 C 250.000 172.370,249.640 171.650,249.200 171.091 C 248.760 170.531,248.400 169.822,248.400 169.515 C 248.400 168.712,246.505 166.257,245.639 165.936 C 244.723 165.597,244.325 163.760,245.038 163.168 C 245.328 162.928,245.781 162.864,246.044 163.027 C 246.348 163.215,246.419 163.154,246.238 162.862 C 245.767 162.099,244.344 162.326,244.116 163.200 M247.870 162.663 C 247.445 163.088,248.427 164.000,249.311 164.000 C 250.099 164.000,250.101 163.975,249.400 163.200 C 248.634 162.353,248.298 162.235,247.870 162.663 M193.700 163.655 C 193.425 163.933,193.203 164.349,193.206 164.580 C 193.209 164.811,193.387 164.730,193.600 164.400 C 193.914 163.915,193.989 163.972,193.994 164.700 C 193.999 165.463,193.787 165.600,192.600 165.600 C 191.496 165.600,191.200 165.759,191.200 166.353 C 191.200 166.770,190.843 167.200,190.400 167.316 C 189.694 167.501,189.600 167.862,189.600 170.400 C 189.600 172.938,189.694 173.299,190.400 173.484 C 190.843 173.600,191.200 174.030,191.200 174.447 C 191.200 174.918,191.482 175.200,191.953 175.200 C 192.370 175.200,192.800 175.557,192.916 176.000 C 193.119 176.776,193.462 176.800,204.163 176.800 C 215.813 176.800,217.077 177.035,214.400 178.707 C 213.890 179.026,213.600 179.640,213.600 180.403 C 213.600 181.333,213.422 181.600,212.800 181.600 C 212.267 181.600,212.000 181.867,212.000 182.400 C 212.000 182.933,211.733 183.200,211.200 183.200 C 210.683 183.200,210.400 183.467,210.400 183.953 C 210.400 184.370,210.043 184.800,209.600 184.916 C 208.987 185.076,208.800 185.462,208.800 186.563 C 208.800 187.733,208.652 188.000,208.000 188.000 C 207.467 188.000,207.200 188.267,207.200 188.800 C 207.200 189.333,206.933 189.600,206.400 189.600 C 205.883 189.600,205.600 189.867,205.600 190.353 C 205.600 190.770,205.243 191.200,204.800 191.316 C 204.187 191.476,204.000 191.862,204.000 192.963 C 204.000 194.133,203.852 194.400,203.200 194.400 C 202.667 194.400,202.400 194.667,202.400 195.200 C 202.400 195.733,202.133 196.000,201.600 196.000 C 201.083 196.000,200.800 196.267,200.800 196.753 C 200.800 197.170,200.443 197.600,200.000 197.716 C 199.460 197.857,199.200 198.262,199.200 198.959 C 199.200 199.560,198.865 200.203,198.400 200.493 C 197.960 200.768,197.600 201.309,197.600 201.696 C 197.600 202.133,197.297 202.400,196.800 202.400 C 196.283 202.400,196.000 202.667,196.000 203.153 C 196.000 203.570,195.643 204.000,195.200 204.116 C 194.747 204.234,194.400 204.662,194.400 205.101 C 194.400 205.527,194.040 206.202,193.600 206.600 C 193.160 206.998,192.800 207.656,192.800 208.062 C 192.800 208.533,192.511 208.800,192.000 208.800 C 191.137 208.800,190.755 216.279,191.554 217.539 C 191.834 217.981,195.499 218.068,211.845 218.021 L 231.795 217.963 232.897 216.907 C 233.944 215.904,234.000 215.663,234.000 212.187 C 234.000 206.887,234.735 207.200,222.269 207.200 C 214.943 207.200,212.000 207.071,212.000 206.751 C 212.000 206.459,211.768 206.494,211.339 206.851 C 210.975 207.153,210.570 207.355,210.439 207.301 C 210.307 207.246,209.607 207.313,208.881 207.449 C 207.316 207.742,206.901 207.465,207.652 206.629 C 207.954 206.294,208.507 205.611,208.883 205.110 C 209.259 204.610,210.024 203.634,210.583 202.942 C 211.142 202.250,211.600 201.526,211.600 201.331 C 211.600 201.137,211.915 200.679,212.300 200.314 C 212.685 199.949,213.307 199.234,213.683 198.725 C 214.059 198.216,214.824 197.234,215.383 196.542 C 215.942 195.850,216.400 195.092,216.400 194.856 C 216.400 194.621,216.760 194.235,217.200 194.000 C 217.640 193.765,218.000 193.315,218.000 193.000 C 218.000 192.685,218.360 192.235,218.800 192.000 C 219.240 191.765,219.600 191.379,219.600 191.144 C 219.600 190.737,220.910 188.935,222.202 187.566 C 222.531 187.218,222.800 186.729,222.800 186.481 C 222.800 186.232,223.160 185.835,223.600 185.600 C 224.040 185.365,224.400 184.936,224.400 184.648 C 224.400 184.360,224.760 183.798,225.200 183.400 C 225.640 183.002,226.000 182.440,226.000 182.152 C 226.000 181.864,226.360 181.435,226.800 181.200 C 227.240 180.965,227.600 180.568,227.600 180.319 C 227.600 180.071,227.862 179.582,228.181 179.234 C 229.781 177.490,230.288 176.880,231.189 175.616 C 234.547 170.899,234.240 167.528,230.258 165.410 L 228.442 164.445 211.861 164.374 C 202.742 164.335,195.095 164.418,194.869 164.558 C 194.642 164.697,194.399 164.438,194.329 163.981 C 194.225 163.313,194.102 163.249,193.700 163.655 M176.286 164.247 C 176.211 164.322,168.736 164.395,159.675 164.409 C 146.206 164.429,143.200 164.531,143.200 164.968 C 143.200 165.262,142.661 165.726,142.003 165.999 C 140.771 166.509,139.763 168.793,139.971 170.600 C 140.022 171.040,140.063 171.850,140.064 172.400 C 140.065 174.157,140.400 175.200,140.961 175.200 C 141.261 175.200,141.601 175.560,141.716 176.000 C 141.919 176.775,142.262 176.800,152.791 176.800 C 162.805 176.800,163.606 176.851,163.010 177.448 C 162.653 177.804,162.459 178.193,162.578 178.312 C 162.697 178.431,163.132 178.139,163.544 177.664 C 164.433 176.639,165.812 176.471,165.443 177.433 C 165.309 177.781,165.200 178.141,165.200 178.233 C 165.200 178.325,164.919 178.400,164.575 178.400 C 164.156 178.400,163.991 178.697,164.075 179.300 C 164.169 179.979,163.976 180.232,163.289 180.329 C 162.696 180.413,162.417 180.693,162.489 181.129 C 162.568 181.607,162.348 181.774,161.725 181.709 C 161.007 181.635,160.827 181.851,160.725 182.909 C 160.647 183.711,160.373 184.215,160.000 184.239 C 158.801 184.317,158.609 184.418,159.085 184.720 C 159.784 185.165,159.251 186.837,158.452 186.706 C 158.038 186.639,157.753 186.929,157.672 187.500 C 157.602 187.995,157.324 188.400,157.055 188.400 C 156.786 188.400,156.393 188.985,156.183 189.700 C 155.915 190.611,155.591 190.965,155.100 190.882 C 154.586 190.796,154.400 191.035,154.400 191.782 C 154.400 192.342,154.216 192.800,153.990 192.800 C 153.765 192.800,153.409 193.250,153.200 193.800 C 152.991 194.350,152.545 194.800,152.210 194.800 C 151.863 194.800,151.600 195.151,151.600 195.613 C 151.600 196.606,149.875 197.423,149.666 196.528 C 149.593 196.212,149.235 196.012,148.871 196.082 C 147.991 196.251,147.735 197.600,148.583 197.600 C 149.475 197.600,149.861 198.817,149.140 199.358 C 148.816 199.601,148.432 200.115,148.288 200.500 C 148.143 200.885,147.745 201.200,147.403 201.200 C 147.060 201.200,146.599 201.677,146.377 202.259 C 146.008 203.230,145.933 203.261,145.468 202.625 C 145.020 202.012,144.956 202.087,144.923 203.266 C 144.847 205.979,144.815 206.091,144.200 205.855 C 143.786 205.697,143.600 205.881,143.600 206.450 C 143.600 206.930,143.275 207.360,142.823 207.478 C 142.372 207.596,141.939 208.166,141.792 208.836 C 141.653 209.471,141.344 210.111,141.107 210.257 C 140.832 210.428,140.794 210.333,141.004 209.994 C 141.242 209.609,141.149 209.534,140.666 209.719 C 140.222 209.890,140.000 209.769,140.000 209.358 C 140.000 208.529,138.647 208.811,138.481 209.674 C 138.397 210.112,138.667 210.383,139.273 210.469 C 139.778 210.541,140.227 210.870,140.270 211.200 C 140.314 211.530,140.455 212.612,140.585 213.605 C 140.747 214.848,141.198 215.814,142.031 216.705 L 143.241 218.000 162.420 218.000 C 175.375 218.000,181.600 217.866,181.600 217.586 C 181.600 217.305,181.858 217.310,182.400 217.600 C 182.840 217.835,183.203 217.887,183.206 217.714 C 183.209 217.541,183.360 217.634,183.541 217.919 C 183.804 218.333,183.974 218.313,184.384 217.819 C 184.805 217.312,184.799 217.199,184.349 217.194 C 183.918 217.189,183.929 217.105,184.400 216.800 C 184.880 216.490,184.889 216.411,184.444 216.406 C 184.138 216.403,183.634 216.715,183.323 217.100 C 182.795 217.755,182.772 217.749,182.964 217.000 C 183.077 216.560,183.207 215.175,183.252 213.923 C 183.298 212.670,183.440 211.656,183.568 211.670 C 184.633 211.784,184.878 211.576,184.384 210.981 C 183.974 210.487,183.804 210.467,183.541 210.881 C 183.328 211.218,183.210 210.969,183.206 210.170 C 183.192 207.283,182.808 207.200,169.404 207.200 L 157.461 207.200 158.330 206.274 C 158.809 205.765,159.200 205.045,159.200 204.674 C 159.200 204.267,159.516 204.000,160.000 204.000 C 160.517 204.000,160.800 203.733,160.800 203.247 C 160.800 202.830,161.157 202.400,161.600 202.284 C 162.040 202.169,162.400 201.788,162.400 201.437 C 162.400 201.087,162.760 200.440,163.200 200.000 C 163.640 199.560,164.000 198.840,164.000 198.400 C 164.000 197.867,164.267 197.600,164.800 197.600 C 165.317 197.600,165.600 197.333,165.600 196.847 C 165.600 196.430,165.957 196.000,166.400 195.884 C 166.879 195.759,167.200 195.338,167.200 194.837 C 167.200 194.371,167.458 194.000,167.782 194.000 C 168.130 194.000,168.469 193.438,168.626 192.600 C 168.816 191.587,169.098 191.200,169.645 191.200 C 170.133 191.200,170.400 190.918,170.400 190.400 C 170.400 189.948,170.667 189.600,171.013 189.600 C 171.349 189.600,171.738 189.285,171.877 188.900 C 172.015 188.515,172.459 187.878,172.864 187.484 C 173.269 187.091,173.600 186.326,173.600 185.784 C 173.600 185.067,173.817 184.800,174.400 184.800 C 174.933 184.800,175.200 184.533,175.200 184.000 C 175.200 183.548,175.467 183.200,175.813 183.200 C 176.149 183.200,176.538 182.885,176.677 182.500 C 176.815 182.115,177.259 181.478,177.664 181.084 C 178.069 180.691,178.400 180.024,178.400 179.603 C 178.400 178.703,180.178 176.800,181.018 176.800 C 181.372 176.800,181.600 176.408,181.600 175.800 C 181.600 175.215,181.830 174.800,182.153 174.800 C 185.032 174.800,182.972 166.632,179.899 165.861 C 179.295 165.709,178.800 165.318,178.800 164.992 C 178.800 164.667,178.665 164.377,178.500 164.349 C 177.510 164.180,176.404 164.129,176.286 164.247 M137.600 165.000 C 137.192 165.491,137.220 165.600,137.751 165.600 C 138.108 165.600,138.400 165.330,138.400 165.000 C 138.400 164.670,138.332 164.400,138.249 164.400 C 138.166 164.400,137.874 164.670,137.600 165.000 M328.349 171.077 C 328.036 171.462,328.003 171.632,328.272 171.470 C 328.532 171.314,328.858 171.370,328.996 171.593 C 329.134 171.817,329.552 171.989,329.924 171.975 C 330.401 171.957,330.328 171.840,329.674 171.578 C 329.165 171.374,328.861 171.025,328.998 170.803 C 329.402 170.150,328.945 170.342,328.349 171.077 M329.847 170.876 C 329.968 171.072,330.439 171.114,330.894 170.970 C 331.544 170.764,331.668 170.846,331.473 171.354 C 331.337 171.709,331.413 172.000,331.642 172.000 C 332.638 172.000,331.729 170.598,330.708 170.560 C 330.113 170.538,329.726 170.680,329.847 170.876 M108.000 175.911 C 108.000 176.501,108.277 176.595,109.631 176.466 C 110.944 176.340,111.377 176.475,111.854 177.155 C 112.179 177.620,112.697 178.000,113.006 178.000 C 113.677 178.000,118.000 183.310,118.000 184.135 C 118.000 184.453,118.356 185.497,118.791 186.456 C 119.919 188.943,119.924 194.598,118.800 196.696 C 118.360 197.516,118.000 198.574,118.000 199.045 C 118.000 199.516,117.737 200.120,117.415 200.387 C 117.094 200.654,116.720 201.222,116.584 201.649 C 116.303 202.535,114.548 204.400,113.996 204.400 C 113.794 204.400,113.435 204.760,113.200 205.200 C 112.965 205.640,112.427 206.000,112.006 206.000 C 111.584 206.000,111.076 206.293,110.876 206.650 C 110.450 207.412,108.446 207.522,108.005 206.807 C 107.788 206.456,107.621 206.442,107.426 206.757 C 106.885 207.633,98.686 207.326,97.893 206.400 C 97.516 205.960,96.777 205.600,96.251 205.600 C 95.630 205.600,95.220 205.319,95.084 204.800 C 94.969 204.360,94.609 204.000,94.284 204.000 C 93.959 204.000,93.599 203.640,93.484 203.200 C 93.369 202.760,92.988 202.400,92.637 202.400 C 92.267 202.400,92.000 202.065,92.000 201.600 C 92.000 201.067,91.733 200.800,91.200 200.800 C 90.548 200.800,90.400 200.533,90.400 199.363 C 90.400 198.262,90.213 197.876,89.600 197.716 C 88.845 197.519,88.800 197.170,88.800 191.557 C 88.800 186.040,88.858 185.570,89.600 185.107 C 90.040 184.832,90.400 184.334,90.400 184.000 C 90.400 183.666,90.760 183.168,91.200 182.893 C 91.710 182.574,92.000 181.960,92.000 181.197 C 92.000 180.267,92.178 180.000,92.800 180.000 C 93.333 180.000,93.600 179.733,93.600 179.200 C 93.600 178.548,93.867 178.400,95.037 178.400 C 96.138 178.400,96.524 178.213,96.684 177.600 C 96.848 176.973,97.230 176.800,98.447 176.800 C 99.733 176.800,100.000 176.663,100.000 176.000 C 100.000 175.253,100.267 175.200,104.000 175.200 C 107.566 175.200,108.000 175.277,108.000 175.911 M322.326 177.068 C 322.257 177.911,322.338 179.287,322.508 180.126 C 323.013 182.628,320.780 183.248,318.608 181.208 C 317.722 180.375,311.156 179.858,309.000 180.451 C 307.837 180.771,307.661 182.786,308.771 183.076 C 309.239 183.199,309.600 183.621,309.600 184.047 C 309.600 184.547,309.902 184.816,310.500 184.847 C 311.671 184.909,311.374 184.926,314.700 184.602 C 316.716 184.405,317.600 184.453,317.600 184.759 C 317.600 185.002,317.330 185.200,317.000 185.200 C 316.670 185.200,316.400 185.356,316.400 185.546 C 316.400 185.737,315.545 186.549,314.500 187.350 C 313.455 188.152,311.892 189.391,311.028 190.104 C 308.926 191.836,302.000 198.687,302.000 199.034 C 302.000 199.401,300.480 200.780,298.781 201.954 C 296.565 203.484,293.946 207.031,293.705 208.828 L 293.495 210.400 296.701 210.400 C 299.593 210.400,299.928 210.480,300.120 211.217 C 300.313 211.954,300.609 212.025,303.117 211.939 C 305.235 211.866,305.789 211.732,305.434 211.377 C 304.689 210.632,304.631 205.600,305.368 205.600 C 305.695 205.600,306.257 204.978,306.618 204.218 C 307.646 202.052,308.400 201.616,308.400 203.188 C 308.400 204.118,308.188 204.530,307.637 204.674 C 306.533 204.963,306.412 205.836,306.405 213.525 L 306.400 220.449 304.500 220.173 C 302.162 219.834,301.990 219.692,303.001 218.936 C 303.549 218.526,303.612 218.363,303.200 218.416 C 302.870 218.459,301.241 218.473,299.580 218.447 L 296.561 218.400 296.727 216.975 C 296.866 215.786,296.753 215.513,296.047 215.328 C 295.538 215.195,295.200 214.785,295.200 214.301 C 295.200 213.147,291.684 213.519,290.859 214.761 C 290.553 215.223,290.099 215.604,289.851 215.609 C 289.603 215.615,288.870 216.335,288.223 217.209 C 287.576 218.084,286.842 218.800,286.593 218.800 C 285.783 218.800,284.511 220.565,284.287 222.000 C 284.167 222.770,283.954 223.687,283.815 224.039 C 283.599 224.583,283.975 224.690,286.349 224.759 C 288.980 224.836,289.124 224.795,288.921 224.020 C 288.746 223.349,288.895 223.200,289.741 223.200 C 290.686 223.200,290.768 223.331,290.688 224.700 L 290.600 226.200 294.457 226.314 C 297.903 226.416,298.336 226.512,298.520 227.214 C 298.701 227.907,299.079 228.000,301.716 228.000 C 304.370 228.000,304.730 228.090,304.916 228.800 C 305.228 229.993,312.363 230.027,312.674 228.837 C 312.784 228.417,313.217 227.984,313.637 227.874 C 314.273 227.708,314.400 227.302,314.400 225.437 C 314.400 223.467,314.495 223.200,315.200 223.200 C 315.863 223.200,316.000 222.933,316.000 221.647 C 316.000 220.430,316.173 220.048,316.800 219.884 C 317.406 219.725,317.600 219.338,317.600 218.284 C 317.600 217.230,317.794 216.843,318.400 216.684 C 319.006 216.525,319.200 216.138,319.200 215.084 C 319.200 214.030,319.394 213.643,320.000 213.484 C 320.440 213.369,320.800 212.988,320.800 212.637 C 320.800 212.267,321.135 212.000,321.600 212.000 C 322.133 212.000,322.400 211.733,322.400 211.200 C 322.400 210.495,322.667 210.400,324.637 210.400 C 326.538 210.400,326.906 210.280,327.084 209.600 C 327.199 209.160,327.611 208.800,328.000 208.800 C 328.389 208.800,328.801 209.160,328.916 209.600 C 329.031 210.040,329.412 210.400,329.763 210.400 C 330.228 210.400,330.400 210.789,330.400 211.837 C 330.400 212.938,330.587 213.324,331.200 213.484 C 331.806 213.643,332.000 214.030,332.000 215.084 C 332.000 216.138,332.194 216.525,332.800 216.684 C 333.406 216.843,333.600 217.230,333.600 218.284 C 333.600 219.338,333.794 219.725,334.400 219.884 C 335.115 220.071,335.200 220.430,335.200 223.247 L 335.200 226.400 338.400 226.400 C 341.333 226.400,341.600 226.333,341.600 225.600 C 341.600 224.867,341.867 224.800,344.800 224.800 C 347.733 224.800,348.000 224.733,348.000 224.000 C 348.000 223.333,348.267 223.200,349.600 223.200 C 351.475 223.200,351.855 221.916,350.375 220.578 C 349.908 220.155,349.632 219.521,349.738 219.116 C 349.878 218.582,349.692 218.400,349.009 218.400 C 348.430 218.400,348.016 218.106,347.884 217.600 C 347.676 216.804,346.400 216.449,346.400 217.187 C 346.400 217.401,346.670 217.471,347.000 217.345 C 348.204 216.883,347.562 217.981,346.270 218.594 C 343.793 219.769,341.865 218.731,341.537 216.047 C 341.392 214.853,340.903 213.395,340.437 212.765 C 339.977 212.142,339.600 211.353,339.600 211.012 C 339.600 210.671,339.240 210.084,338.800 209.707 C 338.272 209.255,338.000 208.527,338.000 207.565 C 338.000 206.714,337.667 205.685,337.200 205.091 C 336.760 204.531,336.400 203.609,336.400 203.040 C 336.400 202.440,336.065 201.797,335.600 201.507 C 334.515 200.830,334.594 200.400,335.803 200.400 C 336.374 200.400,337.180 200.831,337.675 201.400 C 338.153 201.950,338.775 202.400,339.058 202.400 C 339.341 202.400,339.765 202.760,340.000 203.200 C 340.370 203.891,340.838 204.000,343.445 204.000 L 346.461 204.000 346.346 202.406 C 346.260 201.214,346.422 200.672,346.988 200.258 C 347.495 199.887,347.755 199.191,347.773 198.152 C 347.795 196.874,347.953 196.578,348.669 196.476 C 349.371 196.376,349.502 196.149,349.346 195.294 C 349.062 193.727,349.511 192.400,350.324 192.400 C 350.947 192.400,351.014 192.074,350.881 189.700 C 350.703 186.538,350.100 185.689,347.776 185.333 C 346.909 185.200,345.927 184.857,345.594 184.569 C 345.261 184.282,344.181 183.865,343.194 183.643 C 342.207 183.422,341.085 182.851,340.700 182.376 C 340.315 181.900,340.000 181.643,340.000 181.805 C 340.000 181.966,339.730 181.874,339.400 181.600 C 339.070 181.326,338.800 180.925,338.800 180.708 C 338.800 180.492,339.070 180.418,339.400 180.545 C 339.730 180.671,340.000 180.601,340.000 180.387 C 340.000 180.174,339.724 180.000,339.387 180.000 C 338.589 180.000,338.138 181.191,338.784 181.590 C 339.140 181.810,339.157 181.980,338.843 182.174 C 338.599 182.324,338.400 183.067,338.400 183.824 C 338.400 184.581,338.232 185.200,338.027 185.200 C 337.822 185.200,337.540 185.560,337.400 186.000 C 337.230 186.536,336.793 186.801,336.073 186.804 C 335.326 186.807,334.575 187.292,333.600 188.400 C 331.551 190.730,327.562 190.807,328.434 188.500 C 328.711 187.768,329.081 187.600,330.413 187.600 C 332.565 187.600,333.600 187.011,333.600 185.786 C 333.600 184.896,333.986 184.599,334.930 184.763 C 335.111 184.794,335.153 184.648,335.023 184.438 C 334.893 184.227,334.953 183.953,335.156 183.827 C 335.359 183.702,335.431 183.239,335.316 182.800 C 335.124 182.067,334.933 181.945,334.116 182.030 C 333.640 182.079,333.258 180.699,333.222 178.800 C 333.166 175.869,333.071 175.817,327.441 175.668 L 322.452 175.536 322.326 177.068 M232.800 177.449 C 232.800 177.980,232.909 178.008,233.400 177.600 C 233.730 177.326,234.000 177.034,234.000 176.951 C 234.000 176.868,233.730 176.800,233.400 176.800 C 233.070 176.800,232.800 177.092,232.800 177.449 M319.200 177.158 C 319.200 177.387,319.501 177.459,319.869 177.318 C 320.377 177.123,320.477 177.223,320.282 177.731 C 320.141 178.099,320.213 178.400,320.442 178.400 C 321.137 178.400,320.642 177.019,319.895 176.875 C 319.513 176.802,319.200 176.929,319.200 177.158 M348.000 180.358 C 348.000 180.587,348.301 180.659,348.669 180.518 C 349.177 180.323,349.277 180.423,349.082 180.931 C 348.941 181.299,349.013 181.600,349.242 181.600 C 349.937 181.600,349.442 180.219,348.695 180.075 C 348.313 180.002,348.000 180.129,348.000 180.358 M291.300 182.100 C 291.355 182.375,291.175 182.555,290.900 182.500 C 290.625 182.445,290.400 182.580,290.400 182.800 C 290.400 183.342,290.936 183.304,291.520 182.720 C 292.104 182.136,292.142 181.600,291.600 181.600 C 291.380 181.600,291.245 181.825,291.300 182.100 M113.242 183.166 C 112.552 183.603,112.952 184.800,113.787 184.800 C 114.174 184.800,114.400 184.431,114.400 183.800 C 114.400 182.737,114.142 182.596,113.242 183.166 M114.400 188.120 C 114.400 188.696,115.182 189.600,115.680 189.600 C 115.856 189.600,116.000 189.420,116.000 189.200 C 116.000 188.980,115.775 188.845,115.500 188.900 C 115.221 188.956,115.052 188.691,115.118 188.300 C 115.182 187.915,115.047 187.600,114.818 187.600 C 114.588 187.600,114.400 187.834,114.400 188.120 M306.516 188.800 C 306.401 189.240,306.041 189.600,305.716 189.600 C 305.391 189.600,305.035 189.943,304.926 190.363 C 304.816 190.783,304.383 191.216,303.963 191.326 C 303.131 191.543,302.934 192.589,303.643 193.026 C 303.945 193.213,303.994 193.011,303.797 192.390 C 303.571 191.679,303.639 191.529,304.105 191.708 C 304.855 191.996,305.607 191.283,305.326 190.551 C 305.062 189.863,305.672 189.833,306.344 190.500 C 306.748 190.901,306.789 190.848,306.554 190.231 C 306.311 189.591,306.391 189.511,307.031 189.754 C 307.648 189.989,307.701 189.948,307.300 189.544 C 306.613 188.851,306.671 188.265,307.400 188.545 C 307.730 188.671,308.000 188.601,308.000 188.387 C 308.000 187.649,306.724 188.004,306.516 188.800 M153.236 190.156 C 152.854 190.616,152.837 190.800,153.175 190.800 C 153.435 190.800,153.536 190.980,153.400 191.200 C 153.264 191.420,153.300 191.600,153.480 191.600 C 153.660 191.600,154.044 191.221,154.333 190.758 C 154.622 190.295,154.681 190.026,154.464 190.161 C 154.246 190.295,154.001 190.204,153.920 189.959 C 153.826 189.677,153.574 189.750,153.236 190.156 M221.600 191.800 C 221.600 192.431,221.826 192.800,222.213 192.800 C 223.048 192.800,223.448 191.603,222.758 191.166 C 221.858 190.596,221.600 190.737,221.600 191.800 M264.800 192.200 C 264.800 192.530,265.092 192.800,265.449 192.800 C 265.980 192.800,266.008 192.691,265.600 192.200 C 265.326 191.870,265.034 191.600,264.951 191.600 C 264.868 191.600,264.800 191.870,264.800 192.200 M114.667 194.667 C 114.116 195.217,114.429 196.000,115.200 196.000 C 115.733 196.000,116.000 195.733,116.000 195.200 C 116.000 194.429,115.217 194.116,114.667 194.667 M300.267 194.667 C 299.863 195.070,299.947 196.000,300.387 196.000 C 300.601 196.000,300.659 195.699,300.518 195.331 C 300.323 194.823,300.423 194.723,300.931 194.918 C 301.299 195.059,301.600 195.001,301.600 194.787 C 301.600 194.347,300.670 194.263,300.267 194.667 M285.246 195.651 C 285.221 196.009,284.926 196.530,284.590 196.808 C 284.255 197.086,284.066 197.400,284.171 197.505 C 284.558 197.891,285.652 196.376,285.476 195.699 C 285.321 195.109,285.286 195.101,285.246 195.651 M330.400 196.480 C 330.400 196.853,330.507 196.853,330.880 196.480 C 331.583 195.777,332.000 195.893,332.000 196.790 C 332.000 197.263,332.481 197.828,333.200 198.200 C 335.321 199.297,334.579 199.598,329.600 199.660 C 326.960 199.693,324.590 199.738,324.333 199.760 C 323.556 199.827,323.516 198.920,324.284 198.641 C 325.874 198.062,327.200 197.124,327.200 196.578 C 327.200 196.170,327.671 196.000,328.800 196.000 C 329.778 196.000,330.400 196.187,330.400 196.480 M217.882 198.269 C 218.077 198.777,217.977 198.877,217.469 198.682 C 217.101 198.541,216.800 198.613,216.800 198.842 C 216.800 199.071,217.113 199.198,217.495 199.125 C 218.242 198.981,218.737 197.600,218.042 197.600 C 217.813 197.600,217.741 197.901,217.882 198.269 M292.267 202.667 C 292.120 202.813,292.014 203.488,292.032 204.167 C 292.049 204.845,292.154 205.175,292.265 204.900 C 292.376 204.625,292.767 204.395,293.133 204.388 C 293.735 204.377,293.732 204.336,293.100 203.968 C 292.246 203.471,292.163 202.624,293.000 202.945 C 293.330 203.071,293.600 203.001,293.600 202.787 C 293.600 202.347,292.670 202.263,292.267 202.667 M73.262 205.962 C 72.871 206.203,72.887 206.374,73.334 206.746 C 73.784 207.119,73.955 207.093,74.136 206.623 C 74.415 205.896,73.944 205.540,73.262 205.962 M236.165 209.444 C 236.221 209.823,236.577 210.179,236.956 210.235 C 237.863 210.368,237.641 209.057,236.727 208.881 C 236.290 208.797,236.098 208.989,236.165 209.444 M341.600 209.158 C 341.600 209.387,341.901 209.459,342.269 209.318 C 342.777 209.123,342.877 209.223,342.682 209.731 C 342.541 210.099,342.613 210.400,342.842 210.400 C 343.071 210.400,343.198 210.087,343.125 209.705 C 342.981 208.958,341.600 208.463,341.600 209.158 M278.846 210.051 C 278.821 210.409,278.526 210.930,278.190 211.208 C 277.855 211.486,277.666 211.800,277.771 211.905 C 278.158 212.291,279.252 210.776,279.076 210.099 C 278.921 209.509,278.886 209.501,278.846 210.051 M76.000 210.751 C 76.000 211.530,77.211 212.150,77.717 211.630 C 78.098 211.238,78.031 211.161,77.400 211.267 C 76.922 211.346,76.640 211.199,76.700 210.900 C 76.755 210.625,76.620 210.400,76.400 210.400 C 76.180 210.400,76.000 210.558,76.000 210.751 M287.467 212.267 C 287.063 212.670,287.147 213.600,287.587 213.600 C 287.801 213.600,287.859 213.299,287.718 212.931 C 287.523 212.423,287.623 212.323,288.131 212.518 C 288.499 212.659,288.800 212.601,288.800 212.387 C 288.800 211.947,287.870 211.863,287.467 212.267 M79.605 213.597 C 78.962 213.994,79.365 215.200,80.141 215.200 C 80.863 215.200,81.273 213.714,80.620 213.463 C 80.349 213.359,79.893 213.419,79.605 213.597 M284.267 215.467 C 283.863 215.870,283.947 216.800,284.387 216.800 C 284.601 216.800,284.659 216.499,284.518 216.131 C 284.323 215.623,284.423 215.523,284.931 215.718 C 285.299 215.859,285.600 215.801,285.600 215.587 C 285.600 215.147,284.670 215.063,284.267 215.467 M87.200 219.013 C 87.200 219.835,88.396 220.254,88.814 219.577 C 89.257 218.861,88.929 218.400,87.976 218.400 C 87.546 218.400,87.200 218.673,87.200 219.013 M237.046 218.969 C 237.289 219.609,237.209 219.689,236.569 219.446 C 235.952 219.211,235.899 219.252,236.300 219.656 C 236.689 220.048,236.907 220.053,237.280 219.680 C 237.653 219.307,237.648 219.089,237.256 218.700 C 236.852 218.299,236.811 218.352,237.046 218.969 M93.675 220.695 C 93.833 221.512,95.100 221.860,95.708 221.252 C 96.005 220.955,95.799 220.889,95.016 221.031 C 94.131 221.192,93.950 221.107,94.138 220.617 C 94.268 220.278,94.187 220.000,93.958 220.000 C 93.729 220.000,93.602 220.313,93.675 220.695 M264.400 241.533 C 264.400 241.790,264.130 242.000,263.800 242.000 C 263.467 242.000,263.200 242.356,263.200 242.800 C 263.200 243.970,264.269 243.778,264.576 242.553 C 264.721 241.977,264.740 241.407,264.619 241.286 C 264.499 241.165,264.400 241.277,264.400 241.533 " stroke="none" fill="#e4e4e4" fill-rule="evenodd"></path></g></svg>